<svg width="120" height="116" viewBox="0 0 120 116" fill="none" xmlns="http://www.w3.org/2000/svg">
<path d="M117.5 58C117.5 88.592 92.0408 113.5 60.5 113.5C28.9592 113.5 3.5 88.592 3.5 58C3.5 27.408 28.9592 2.5 60.5 2.5C92.0408 2.5 117.5 27.408 117.5 58Z" fill="#FFA21D" stroke="#422803" stroke-width="5"/>
<g filter="url(#filter0_d_1_7)">
<path d="M39.9238 39.7324C43.3008 39.7324 46.373 40.4688 49.1406 41.9414C51.9336 43.3887 54.1426 45.4707 55.7676 48.1875C57.3926 50.8789 58.2051 54.0146 58.2051 57.5947C58.2051 61.1748 57.3926 64.3486 55.7676 67.1162C54.1426 69.8584 51.9717 71.9912 49.2549 73.5146C46.5381 75.0127 43.5674 75.7617 40.3428 75.7617C37.1436 75.7617 34.1475 74.9873 31.3545 73.4385C28.5615 71.8896 26.3271 69.7441 24.6514 67.002C22.9756 64.2344 22.1377 61.1113 22.1377 57.6328C22.1377 54.1543 22.9502 51.0566 24.5752 48.3398C26.2002 45.5977 28.3711 43.4775 31.0879 41.9795C33.8301 40.4814 36.7754 39.7324 39.9238 39.7324ZM40.8379 72.791C44.0625 72.791 46.5127 71.6357 48.1885 69.3252C49.8643 67.0146 50.7021 63.9805 50.7021 60.2227C50.7021 56.9727 50.2451 53.9893 49.3311 51.2725C48.4424 48.5303 47.1602 46.3467 45.4844 44.7217C43.8086 43.0967 41.8789 42.2842 39.6953 42.2842C37.7656 42.2842 36.0518 42.7539 34.5537 43.6934C33.0811 44.6328 31.9131 46.0801 31.0498 48.0352C30.1865 49.9902 29.7549 52.4404 29.7549 55.3857C29.7549 58.2803 30.2119 61.0732 31.126 63.7646C32.04 66.4307 33.335 68.6016 35.0107 70.2773C36.6865 71.9531 38.6289 72.791 40.8379 72.791ZM85.3604 51.8057C85.3604 49.9014 85.1826 48.2891 84.8271 46.9688C84.4971 45.6484 83.8115 44.582 82.7705 43.7695C81.7549 42.957 80.2949 42.5508 78.3906 42.5508C77.7305 42.5508 76.918 42.6904 75.9531 42.9697C74.9883 43.249 74.1377 43.6553 73.4014 44.1885C72.6904 44.6963 72.335 45.293 72.335 45.9785C72.335 46.2578 72.3857 46.5371 72.4873 46.8164C72.5889 47.0703 72.7539 47.4004 72.9824 47.8066C73.2109 48.1875 73.376 48.5176 73.4775 48.7969C73.5791 49.0762 73.6299 49.3682 73.6299 49.6729C73.6299 50.6885 73.2998 51.5391 72.6396 52.2246C72.0049 52.8848 71.1797 53.2148 70.1641 53.2148C68.8945 53.2148 67.8789 52.7451 67.1172 51.8057C66.3809 50.8662 66.0127 49.7363 66.0127 48.416C66.0127 46.4355 66.7871 44.7979 68.3359 43.5029C69.8848 42.208 71.751 41.2559 73.9346 40.6465C76.1436 40.0371 78.2002 39.7324 80.1045 39.7324C83.6846 39.7324 86.3506 40.2656 88.1025 41.332C89.8799 42.373 91.0479 43.9092 91.6064 45.9404C92.1904 47.9463 92.4824 50.7646 92.4824 54.3955L92.4062 56.2998C92.3809 56.8584 92.3428 57.7852 92.292 59.0801C92.2666 60.375 92.2539 61.5684 92.2539 62.6602C92.2539 68.373 92.8506 71.2295 94.0439 71.2295C94.9072 71.2295 96.0244 70.3535 97.3955 68.6016L98.9951 70.3154C97.8779 72.1436 96.7734 73.5146 95.6816 74.4287C94.5898 75.3174 93.1553 75.7617 91.3779 75.7617C89.7021 75.7617 88.3184 75.2412 87.2266 74.2002C86.1602 73.1338 85.5762 71.7627 85.4746 70.0869C83.8496 71.8643 82.0215 73.2607 79.9902 74.2764C77.9844 75.2666 75.8516 75.7617 73.5918 75.7617C72.0176 75.7617 70.5576 75.4824 69.2119 74.9238C67.8916 74.3398 66.8252 73.4766 66.0127 72.334C65.2256 71.1914 64.832 69.8203 64.832 68.2207C64.832 65.8086 65.7588 63.8027 67.6123 62.2031C69.4658 60.6035 71.5986 59.3848 74.0107 58.5469C76.4229 57.709 79.3682 56.8711 82.8467 56.0332C83.1514 55.9824 83.9893 55.7793 85.3604 55.4238V51.8057ZM85.3604 57.6709C84.9795 57.7979 84.4971 57.9502 83.9131 58.1279C81.7295 58.8389 79.8633 59.5244 78.3145 60.1846C76.7656 60.8193 75.3818 61.6826 74.1631 62.7744C72.9443 63.8662 72.335 65.1484 72.335 66.6211C72.335 68.1191 72.7412 69.2998 73.5537 70.1631C74.3916 71.0264 75.5596 71.458 77.0576 71.458C78.5557 71.458 80.0029 71.0898 81.3994 70.3535C82.7959 69.5918 84.1162 68.6016 85.3604 67.3828V57.6709Z" fill="black" fill-opacity="0.76" shape-rendering="crispEdges"/>
<path d="M49.1406 41.9414L48.6708 42.8243L48.6805 42.8293L49.1406 41.9414ZM55.7676 48.1875L54.9094 48.7008L54.9115 48.7044L55.7676 48.1875ZM55.7676 67.1162L56.6279 67.626L56.6299 67.6225L55.7676 67.1162ZM49.2549 73.5146L49.7378 74.3904L49.744 74.3869L49.2549 73.5146ZM24.6514 67.002L23.796 67.5199L23.7981 67.5234L24.6514 67.002ZM24.5752 48.3398L25.4334 48.8532L25.4355 48.8496L24.5752 48.3398ZM31.0879 41.9795L30.6085 41.1019L30.605 41.1038L31.0879 41.9795ZM49.3311 51.2725L48.3797 51.5808L48.3833 51.5913L49.3311 51.2725ZM34.5537 43.6934L34.0224 42.8461L34.0159 42.8503L34.5537 43.6934ZM31.126 63.7646L30.1791 64.0862L30.18 64.089L31.126 63.7646ZM39.9238 40.7324C43.1499 40.7324 46.059 41.4344 48.6709 42.8242L49.6104 41.0586C46.6871 39.5031 43.4516 38.7324 39.9238 38.7324V40.7324ZM48.6805 42.8293C51.3075 44.1905 53.3791 46.1423 54.9094 48.7008L56.6258 47.6742C54.9061 44.7991 52.5597 42.5868 49.6007 41.0535L48.6805 42.8293ZM54.9115 48.7044C56.4298 51.2191 57.2051 54.171 57.2051 57.5947H59.2051C59.2051 53.8583 58.3553 50.5387 56.6236 47.6706L54.9115 48.7044ZM57.2051 57.5947C57.2051 61.0179 56.43 64.013 54.9052 66.6099L56.6299 67.6225C58.3552 64.6842 59.2051 61.3318 59.2051 57.5947H57.2051ZM54.9073 66.6064C53.3698 69.2009 51.3254 71.2071 48.7658 72.6424L49.744 74.3869C52.6179 72.7753 54.9154 70.5159 56.6279 67.626L54.9073 66.6064ZM48.772 72.639C46.209 74.0522 43.4054 74.7617 40.3428 74.7617V76.7617C43.7293 76.7617 46.8671 75.9732 49.7377 74.3903L48.772 72.639ZM40.3428 74.7617C37.3129 74.7617 34.4838 74.0303 31.8395 72.5639L30.8695 74.313C33.8112 75.9443 36.9742 76.7617 40.3428 76.7617V74.7617ZM31.8395 72.5639C29.1987 71.0995 27.0908 69.0761 25.5046 66.4805L23.7981 67.5234C25.5634 70.4122 27.9243 72.6798 30.8695 74.313L31.8395 72.5639ZM25.5068 66.484C23.9327 63.8844 23.1377 60.943 23.1377 57.6328H21.1377C21.1377 61.2797 22.0185 64.5844 23.796 67.5199L25.5068 66.484ZM23.1377 57.6328C23.1377 54.3167 23.9102 51.3997 25.4334 48.8532L23.717 47.8265C21.9902 50.7135 21.1377 53.9919 21.1377 57.6328H23.1377ZM25.4355 48.8496C26.9722 46.2565 29.0146 44.2647 31.5708 42.8552L30.605 41.1038C27.7276 42.6904 25.4282 44.9388 23.7149 47.83L25.4355 48.8496ZM31.5673 42.8571C34.1613 41.44 36.9416 40.7324 39.9238 40.7324V38.7324C36.6092 38.7324 33.4989 39.5229 30.6085 41.1019L31.5673 42.8571ZM40.8379 73.791C44.335 73.791 47.1076 72.5187 48.998 69.9123L47.379 68.7381C45.9178 70.7528 43.79 71.791 40.8379 71.791V73.791ZM48.998 69.9123C50.8315 67.3842 51.7021 64.125 51.7021 60.2227H49.7021C49.7021 63.8359 48.897 66.6451 47.379 68.7381L48.998 69.9123ZM51.7021 60.2227C51.7021 56.8785 51.2318 53.7859 50.2788 50.9536L48.3833 51.5913C49.2585 54.1926 49.7021 57.0668 49.7021 60.2227H51.7021ZM50.2823 50.9642C49.355 48.1026 47.9979 45.7661 46.1805 44.0038L44.7882 45.4396C46.3224 46.9272 47.5298 48.9579 48.3798 51.5808L50.2823 50.9642ZM46.1805 44.0038C44.3324 42.2116 42.1579 41.2842 39.6953 41.2842V43.2842C41.5999 43.2842 43.2848 43.9817 44.7882 45.4396L46.1805 44.0038ZM39.6953 41.2842C37.5955 41.2842 35.6941 41.7978 34.0224 42.8462L35.085 44.5406C36.4094 43.71 37.9358 43.2842 39.6953 43.2842V41.2842ZM34.0159 42.8503C32.3432 43.9174 31.06 45.5365 30.135 47.6312L31.9646 48.4391C32.7662 46.6237 33.8189 45.3482 35.0915 44.5364L34.0159 42.8503ZM30.135 47.6312C29.1986 49.752 28.7549 52.3506 28.7549 55.3857H30.7549C30.7549 52.5302 31.1745 50.2284 31.9646 48.4391L30.135 47.6312ZM28.7549 55.3857C28.7549 58.3876 29.2292 61.2893 30.1791 64.0862L32.0729 63.4431C31.1946 60.8571 30.7549 58.1729 30.7549 55.3857H28.7549ZM30.18 64.089C31.1342 66.8721 32.5016 69.1824 34.3036 70.9845L35.7178 69.5702C34.1683 68.0207 32.9458 65.9892 32.0719 63.4403L30.18 64.089ZM34.3036 70.9845C36.1518 72.8327 38.3431 73.791 40.8379 73.791V71.791C38.9148 71.791 37.2212 71.0736 35.7178 69.5702L34.3036 70.9845ZM84.8271 46.9688L83.857 47.2113L83.8592 47.22L83.8615 47.2287L84.8271 46.9688ZM82.7705 43.7695L82.1458 44.5505L82.1552 44.5578L82.7705 43.7695ZM73.4014 44.1885L73.9826 45.0022L73.9879 44.9984L73.4014 44.1885ZM72.4873 46.8164L71.5475 47.1581L71.5529 47.1731L71.5588 47.1878L72.4873 46.8164ZM72.9824 47.8066L72.1108 48.2969L72.1177 48.3091L72.1249 48.3211L72.9824 47.8066ZM72.6396 52.2246L71.9193 51.531L71.9188 51.5315L72.6396 52.2246ZM67.1172 51.8057L66.3301 52.4225L66.3352 52.429L66.3404 52.4355L67.1172 51.8057ZM73.9346 40.6465L73.6686 39.6825L73.6658 39.6833L73.9346 40.6465ZM88.1025 41.332L87.5826 42.1862L87.5898 42.1906L87.5971 42.1949L88.1025 41.332ZM91.6064 45.9404L90.6422 46.2056L90.6442 46.2128L90.6463 46.22L91.6064 45.9404ZM92.4824 54.3955L93.4816 54.4355L93.4824 54.4155V54.3955H92.4824ZM92.4062 56.2998L93.4052 56.3452L93.4055 56.3398L92.4062 56.2998ZM92.292 59.0801L91.2928 59.0409L91.2924 59.0507L91.2922 59.0605L92.292 59.0801ZM97.3955 68.6016L98.1266 67.9192L97.3287 67.0644L96.608 67.9853L97.3955 68.6016ZM98.9951 70.3154L99.8484 70.8369L100.245 70.1886L99.7262 69.6331L98.9951 70.3154ZM95.6816 74.4287L96.313 75.2043L96.3236 75.1955L95.6816 74.4287ZM87.2266 74.2002L86.5195 74.9073L86.5279 74.9157L86.5365 74.9239L87.2266 74.2002ZM85.4746 70.0869L86.4728 70.0264L86.3299 67.6694L84.7366 69.4121L85.4746 70.0869ZM79.9902 74.2764L80.4329 75.1731L80.4374 75.1708L79.9902 74.2764ZM69.2119 74.9238L68.8074 75.8384L68.8179 75.843L68.8285 75.8474L69.2119 74.9238ZM66.0127 72.334L65.1892 72.9013L65.1934 72.9074L65.1977 72.9135L66.0127 72.334ZM82.8467 56.0332L82.6823 55.0468L82.6471 55.0527L82.6125 55.061L82.8467 56.0332ZM85.3604 55.4238L85.6113 56.3918L86.3604 56.1976V55.4238H85.3604ZM85.3604 57.6709H86.3604V56.2835L85.0441 56.7222L85.3604 57.6709ZM83.9131 58.1279L83.6219 57.1713L83.6127 57.1741L83.6035 57.1771L83.9131 58.1279ZM78.3145 60.1846L78.6937 61.11L78.7066 61.1045L78.3145 60.1846ZM73.5537 70.1631L72.8255 70.8485L72.8308 70.854L72.8361 70.8596L73.5537 70.1631ZM81.3994 70.3535L81.8659 71.2382L81.8783 71.2314L81.3994 70.3535ZM85.3604 67.3828L86.0601 68.0972L86.3604 67.8031V67.3828H85.3604ZM86.3604 51.8057C86.3604 49.8452 86.178 48.1397 85.7928 46.7088L83.8615 47.2287C84.1872 48.4384 84.3604 49.9576 84.3604 51.8057H86.3604ZM85.7973 46.7262C85.4149 45.1966 84.6084 43.9354 83.3858 42.9812L82.1552 44.5578C83.0147 45.2286 83.5792 46.1002 83.857 47.2113L85.7973 46.7262ZM83.3952 42.9887C82.1364 41.9816 80.4201 41.5508 78.3906 41.5508V43.5508C80.1698 43.5508 81.3734 43.9325 82.1458 44.5504L83.3952 42.9887ZM78.3906 41.5508C77.601 41.5508 76.6884 41.7158 75.6751 42.0092L76.2312 43.9303C77.1475 43.665 77.86 43.5508 78.3906 43.5508V41.5508ZM75.6751 42.0092C74.6111 42.3172 73.6538 42.771 72.8149 43.3785L73.9879 44.9984C74.6216 44.5395 75.3655 44.1809 76.2312 43.9303L75.6751 42.0092ZM72.8201 43.3747C71.9266 44.013 71.335 44.8827 71.335 45.9785H73.335C73.335 45.7032 73.4543 45.3796 73.9826 45.0022L72.8201 43.3747ZM71.335 45.9785C71.335 46.3817 71.4087 46.7764 71.5475 47.1581L73.4271 46.4747C73.3628 46.2978 73.335 46.134 73.335 45.9785H71.335ZM71.5588 47.1878C71.6841 47.5011 71.8735 47.875 72.1108 48.2969L73.854 47.3164C73.6343 46.9258 73.4936 46.6395 73.4158 46.445L71.5588 47.1878ZM72.1249 48.3211C72.335 48.6712 72.4659 48.941 72.5377 49.1386L74.4173 48.4551C74.2861 48.0941 74.0869 47.7038 73.8399 47.2921L72.1249 48.3211ZM72.5377 49.1386C72.5985 49.3056 72.6299 49.4817 72.6299 49.6729H74.6299C74.6299 49.2546 74.5597 48.8467 74.4173 48.4551L72.5377 49.1386ZM72.6299 49.6729C72.6299 50.4489 72.3872 51.0451 71.9193 51.531L73.36 52.9183C74.2124 52.033 74.6299 50.928 74.6299 49.6729H72.6299ZM71.9188 51.5315C71.4941 51.9732 70.9404 52.2148 70.1641 52.2148V54.2148C71.419 54.2148 72.5157 53.7963 73.3605 52.9177L71.9188 51.5315ZM70.1641 52.2148C69.1788 52.2148 68.4552 51.868 67.8939 51.1759L66.3404 52.4355C67.3026 53.6222 68.6103 54.2148 70.1641 54.2148V52.2148ZM67.9042 51.1888C67.3206 50.4442 67.0127 49.5378 67.0127 48.416H65.0127C65.0127 49.9348 65.4411 51.2882 66.3301 52.4225L67.9042 51.1888ZM67.0127 48.416C67.0127 46.7383 67.6507 45.3793 68.9774 44.2701L67.6945 42.7357C65.9235 44.2164 65.0127 46.1328 65.0127 48.416H67.0127ZM68.9774 44.2701C70.4046 43.0768 72.1396 42.1856 74.2034 41.6097L73.6658 39.6833C71.3623 40.3261 69.3649 41.3392 67.6945 42.7357L68.9774 44.2701ZM74.2005 41.6105C76.3398 41.0203 78.3061 40.7324 80.1045 40.7324V38.7324C78.0943 38.7324 75.9473 39.0539 73.6686 39.6825L74.2005 41.6105ZM80.1045 40.7324C83.6206 40.7324 86.0649 41.2624 87.5826 42.1862L88.6225 40.4778C86.6362 39.2688 83.7486 38.7324 80.1045 38.7324V40.7324ZM87.5971 42.1949C89.1438 43.1008 90.151 44.4194 90.6422 46.2056L92.5707 45.6753C91.9447 43.399 90.616 41.6453 88.6079 40.4691L87.5971 42.1949ZM90.6463 46.22C91.1913 48.092 91.4824 50.8005 91.4824 54.3955H93.4824C93.4824 50.7288 93.1895 47.8006 92.5666 45.6609L90.6463 46.22ZM91.4832 54.3555L91.407 56.2598L93.4055 56.3398L93.4816 54.4355L91.4832 54.3555ZM91.4073 56.2544C91.3817 56.8164 91.3435 57.7459 91.2928 59.0409L93.2912 59.1193C93.342 57.8244 93.38 56.9004 93.4052 56.3452L91.4073 56.2544ZM91.2922 59.0605C91.2667 60.3608 91.2539 61.5608 91.2539 62.6602H93.2539C93.2539 61.576 93.2665 60.3892 93.2918 59.0997L91.2922 59.0605ZM91.2539 62.6602C91.2539 65.5332 91.4025 67.7594 91.7225 69.2916C91.8809 70.0496 92.0971 70.7201 92.4134 71.2249C92.7373 71.7418 93.2699 72.2295 94.0439 72.2295V70.2295C94.2213 70.2295 94.2318 70.3602 94.1082 70.1629C93.977 69.9536 93.8203 69.5529 93.6803 68.8827C93.4037 67.5585 93.2539 65.5 93.2539 62.6602H91.2539ZM94.0439 72.2295C94.8032 72.2295 95.5161 71.8536 96.1463 71.3594C96.7936 70.8519 97.4724 70.1259 98.183 69.2179L96.608 67.9853C95.9475 68.8292 95.3821 69.4172 94.9123 69.7856C94.4253 70.1674 94.148 70.2295 94.0439 70.2295V72.2295ZM96.6645 69.2839L98.2641 70.9977L99.7262 69.6331L98.1266 67.9192L96.6645 69.2839ZM98.1418 69.794C97.0557 71.5713 96.0174 72.8434 95.0397 73.662L96.3236 75.1955C97.5295 74.1859 98.7002 72.7158 99.8484 70.8369L98.1418 69.794ZM95.0504 73.6531C94.1795 74.362 92.987 74.7617 91.3779 74.7617V76.7617C93.3235 76.7617 95.0001 76.2728 96.3129 75.2043L95.0504 73.6531ZM91.3779 74.7617C89.9281 74.7617 88.8012 74.3199 87.9166 73.4765L86.5365 74.9239C87.8355 76.1626 89.4762 76.7617 91.3779 76.7617V74.7617ZM87.9337 73.4931C87.0599 72.6194 86.5614 71.488 86.4728 70.0264L84.4764 70.1474C84.591 72.0374 85.2604 73.6482 86.5195 74.9073L87.9337 73.4931ZM84.7366 69.4121C83.1892 71.1046 81.4582 72.4244 79.543 73.3819L80.4374 75.1708C82.5848 74.0971 84.51 72.6239 86.2126 70.7617L84.7366 69.4121ZM79.5476 73.3797C77.6808 74.3012 75.6997 74.7617 73.5918 74.7617V76.7617C76.0035 76.7617 78.2879 76.232 80.4329 75.1731L79.5476 73.3797ZM73.5918 74.7617C72.1385 74.7617 70.81 74.5044 69.5953 74.0002L68.8285 75.8474C70.3052 76.4604 71.8967 76.7617 73.5918 76.7617V74.7617ZM69.6164 74.0093C68.4554 73.4958 67.5327 72.746 66.8277 71.7545L65.1977 72.9135C66.1176 74.2071 67.3278 75.1839 68.8074 75.8384L69.6164 74.0093ZM66.8362 71.7667C66.1809 70.8155 65.832 69.6496 65.832 68.2207H63.832C63.832 69.991 64.2703 71.5674 65.1892 72.9013L66.8362 71.7667ZM65.832 68.2207C65.832 66.1043 66.6284 64.3731 68.2657 62.9602L66.959 61.4461C64.8891 63.2324 63.832 65.5129 63.832 68.2207H65.832ZM68.2657 62.9602C70.0195 61.4466 72.0408 60.2898 74.3389 59.4915L73.6826 57.6022C71.1564 58.4798 68.9121 59.7604 66.959 61.4461L68.2657 62.9602ZM74.3389 59.4915C76.7107 58.6676 79.6226 57.8384 83.0809 57.0054L82.6125 55.061C79.1138 55.9038 76.135 56.7503 73.6826 57.6022L74.3389 59.4915ZM83.0111 57.0196C83.3703 56.9597 84.2602 56.7421 85.6113 56.3918L85.1094 54.4558C83.7184 54.8165 82.9324 55.0051 82.6823 55.0468L83.0111 57.0196ZM86.3604 55.4238V51.8057H84.3604V55.4238H86.3604ZM85.0441 56.7222C84.6747 56.8454 84.2013 56.9949 83.6219 57.1713L84.2042 59.0846C84.7928 58.9055 85.2843 58.7503 85.6766 58.6196L85.0441 56.7222ZM83.6035 57.1771C81.4012 57.8941 79.5059 58.5897 77.9224 59.2646L78.7066 61.1045C80.2206 60.4591 82.0577 59.7837 84.2227 59.0788L83.6035 57.1771ZM77.9352 59.2593C76.2833 59.9363 74.8016 60.8599 73.4958 62.0296L74.8303 63.5192C75.9621 62.5054 77.248 61.7024 78.6937 61.1099L77.9352 59.2593ZM73.4958 62.0296C72.0916 63.2876 71.335 64.8307 71.335 66.6211H73.335C73.335 65.4661 73.7971 64.4449 74.8303 63.5192L73.4958 62.0296ZM71.335 66.6211C71.335 68.3038 71.7957 69.7543 72.8255 70.8485L74.2819 69.4777C73.6867 68.8453 73.335 67.9344 73.335 66.6211H71.335ZM72.8361 70.8596C73.9063 71.9622 75.3596 72.458 77.0576 72.458V70.458C75.7595 70.458 74.8769 70.0905 74.2713 69.4666L72.8361 70.8596ZM77.0576 72.458C78.727 72.458 80.3335 72.046 81.8658 71.2381L80.933 69.4689C79.6723 70.1337 78.3843 70.458 77.0576 70.458V72.458ZM81.8783 71.2314C83.3628 70.4217 84.7564 69.3743 86.0601 68.0972L84.6606 66.6685C83.476 67.8288 82.229 68.7619 80.9206 69.4756L81.8783 71.2314ZM86.3604 67.3828V57.6709H84.3604V67.3828H86.3604Z" fill="black"/>
</g>
<defs>
<filter id="filter0_d_1_7" x="18.1377" y="39.7324" width="84.8574" height="44.0293" filterUnits="userSpaceOnUse" color-interpolation-filters="sRGB">
<feFlood flood-opacity="0" result="BackgroundImageFix"/>
<feColorMatrix in="SourceAlpha" type="matrix" values="0 0 0 0 0 0 0 0 0 0 0 0 0 0 0 0 0 0 127 0" result="hardAlpha"/>
<feOffset dy="4"/>
<feGaussianBlur stdDeviation="2"/>
<feComposite in2="hardAlpha" operator="out"/>
<feColorMatrix type="matrix" values="0 0 0 0 0 0 0 0 0 0 0 0 0 0 0 0 0 0 0.25 0"/>
<feBlend mode="normal" in2="BackgroundImageFix" result="effect1_dropShadow_1_7"/>
<feBlend mode="normal" in="SourceGraphic" in2="effect1_dropShadow_1_7" result="shape"/>
</filter>
</defs>
</svg>
