<svg width="96" height="96" viewBox="0 0 96 96" fill="none" xmlns="http://www.w3.org/2000/svg">
<path d="M39.8403 10.0177C40.0987 7.1759 42.4813 5 45.3346 5H50.9454C53.7987 5 56.1813 7.1759 56.4397 10.0177C56.652 12.3507 58.331 14.2554 60.5246 15.0775C61.0885 15.2888 61.6458 15.5143 62.1959 15.7532C64.3662 16.6965 66.9193 16.5157 68.7372 15.0006C70.9839 13.1284 74.2876 13.2783 76.3553 15.3462L80.3155 19.3062C82.287 21.2778 82.4298 24.4276 80.6447 26.5697C79.1581 28.3538 79.0196 30.873 80.0192 32.9694C80.4519 33.8773 80.847 34.8065 81.2025 35.7552C82.0247 37.9489 83.9294 39.628 86.2624 39.8403C89.104 40.0987 91.28 42.4813 91.28 45.3346V50.9454C91.28 53.7987 89.104 56.1813 86.2624 56.4397C83.9294 56.652 82.0247 58.331 81.2025 60.5246C80.8833 61.3762 80.5321 62.2123 80.1507 63.0311C79.2237 65.0207 79.3738 67.3964 80.7789 69.0828C82.4881 71.1336 82.3513 74.1495 80.4635 76.0373L76.0373 80.4635C74.1495 82.3513 71.1336 82.4881 69.0828 80.7789C67.3964 79.3738 65.0207 79.2237 63.0311 80.1507C62.2123 80.5321 61.3762 80.8833 60.5246 81.2025C58.331 82.0247 56.652 83.9294 56.4397 86.2624C56.1813 89.104 53.7987 91.28 50.9454 91.28H45.3346C42.4813 91.28 40.0987 89.104 39.8403 86.2624C39.628 83.9294 37.9489 82.0247 35.7552 81.2025C34.8066 80.847 33.8774 80.4519 32.9695 80.0192C30.873 79.0196 28.3538 79.1581 26.5697 80.6447C24.4276 82.4298 21.2778 82.287 19.3062 80.3155L15.3462 76.3553C13.2783 74.2876 13.1284 70.9839 15.0006 68.7372C16.5157 66.9193 16.6965 64.3662 15.7532 62.1959C15.5143 61.6458 15.2889 61.0889 15.0775 60.5246C14.2554 58.331 12.3507 56.652 10.0177 56.4397C7.1759 56.1813 5 53.7987 5 50.9454V45.3346C5 42.4813 7.1759 40.0987 10.0177 39.8403C12.3508 39.628 14.2554 37.949 15.0775 35.7552C15.326 35.0923 15.5938 34.4388 15.8803 33.7955C16.8941 31.5188 16.7256 28.8244 15.1302 26.9098C13.1846 24.5751 13.3403 21.1421 15.4893 18.9931L18.9931 15.4893C21.142 13.3403 24.5751 13.1846 26.9098 15.1302C28.8243 16.7257 31.5188 16.8941 33.7954 15.8803C34.4388 15.5938 35.0923 15.326 35.7552 15.0775C37.9489 14.2554 39.628 12.3508 39.8403 10.0177V10.0177Z" stroke="#3D2707" stroke-width="8.628" stroke-linecap="round" stroke-linejoin="round"/>
<path d="M61.082 48.14C61.082 55.2879 55.2879 61.082 48.14 61.082C40.9921 61.082 35.198 55.2879 35.198 48.14C35.198 40.9921 40.9921 35.198 48.14 35.198C55.2879 35.198 61.082 40.9921 61.082 48.14Z" stroke="#3D2707" stroke-width="8.628" stroke-linecap="round" stroke-linejoin="round"/>
</svg>
